<svg fill="#494D53" id="Layer_1" enable-background="new 0 0 510 510" height="512" viewBox="0 0 510 510" width="512" xmlns="http://www.w3.org/2000/svg"><g id="XMLID_621_"><path id="XMLID_626_" d="m456.811 132.648c-32.665 10.983-69.419 4.215-87.086-3.605-22.399-8.399-47.067-8.397-69.463 0-29.193 10.948-61.345 10.947-90.534.001-22.398-8.4-47.068-8.4-69.465 0-1.936.393-39.471 18.482-87.084 3.602-2.955-1.02 14.559 5.031-53.18-18.376v275.73h75c0-27.906 19.15-51.424 45-58.102v-16.898h-15c-24.812 0-45-20.186-45-45v-30h30v30c0 8.272 6.729 15 15 15h15v-105h30v75h15c8.271 0 15-6.729 15-15v-30h30v30c0 24.814-20.188 45-45 45h-15v46.898c25.85 6.678 45 30.195 45 58.102h315v-275.729c-67.737 23.406-50.237 17.358-53.188 18.377zm-92.417 30.532 21.213 21.214-21.213 21.213-21.213-21.214zm-83.788 15 21.213 21.214-21.213 21.213-21.213-21.214zm166.874 158.5-24.96 16.64-15.395-23.092c-15.419 16.358-40.138 23.472-62.931 22.25-34.055-1.831-61.81-18.691-75.505-53.084 15.256-31.458 41.148-52.292 76.489-51.893 21.882.261 46.325 6.95 61.758 22.554l15.583-23.375 24.961 16.641-24.453 36.679z"/><path id="XMLID_625_" d="m344.821 277.499c-17.661-.246-32.497 8.774-42.505 22.834 5.461 7.841 18.237 20.831 43.489 22.189 18.117.975 31.746-5.461 38.444-11.809 17.863-16.603-9.943-32.706-39.428-33.214z"/><path id="XMLID_624_" d="m0 30v50.729c77.579 29.073 59.279 22.215 62.128 23.282 36.134 11.295 66.37-2.804 67.603-3.057 29.189-10.946 61.34-10.946 90.531 0 22.396 8.399 47.065 8.4 69.464 0 29.193-10.947 61.344-10.947 90.531-.002 1.303.269 31.409 14.373 67.607 3.061 2.8-1.049-15.275 5.725 62.136-23.284v-50.729z"/><path id="XMLID_623_" d="m0 420v60h510v-60c-59.049 0-449.769 0-510 0z"/><path id="XMLID_622_" d="m135 360c-16.542 0-30 13.458-30 30h60c0-16.542-13.458-30-30-30z"/></g></svg>