<?xml version="1.0" encoding="iso-8859-1"?>
<!-- Generator: Adobe Illustrator 19.0.0, SVG Export Plug-In . SVG Version: 6.00 Build 0)  -->
<svg version="1.1" id="Capa_1" xmlns="http://www.w3.org/2000/svg" xmlns:xlink="http://www.w3.org/1999/xlink" x="0px" y="0px"
	 viewBox="0 0 512 512" style="enable-background:new 0 0 512 512;" xml:space="preserve">
<path style="fill:#ACABB1;" d="M486.4,469.333V42.667c0-18.85-15.283-34.133-34.133-34.133H59.733
	c-18.85,0-34.133,15.283-34.133,34.133v426.667c0,18.85,15.283,34.133,34.133,34.133h392.533
	C471.117,503.467,486.4,488.184,486.4,469.333z M238.933,460.8H68.267v-51.2h170.667V460.8z M136.533,256v51.2H68.267V256H136.533z
	 M68.267,230.4v-51.2h68.267v51.2H68.267z M136.533,332.8V384H68.267v-51.2H136.533z M238.933,384h-68.267v-51.2h68.267V384z
	 M238.933,307.2h-68.267V256h68.267V307.2z M238.933,230.4h-68.267v-51.2h68.267V230.4z M341.333,460.8h-68.267v-51.2h68.267V460.8z
	 M341.333,384h-68.267v-51.2h68.267V384z M341.333,307.2h-68.267V256h68.267V307.2z M341.333,230.4h-68.267v-51.2h68.267V230.4z
	 M443.733,460.8h-68.267v-51.2h68.267V460.8z M443.733,384h-68.267v-51.2h68.267V384z M443.733,307.2h-68.267V256h68.267V307.2z
	 M443.733,230.4h-68.267v-51.2h68.267V230.4z M435.2,136.533H76.8c-9.429,0-17.067-7.637-17.067-17.067v-51.2
	c0-9.429,7.637-17.067,17.067-17.067h358.4c9.429,0,17.067,7.637,17.067,17.067v51.2C452.267,128.896,444.629,136.533,435.2,136.533
	z"/>
<g>
	<path style="fill:#E6E7E8;" d="M452.267,68.267c0-9.429-7.637-17.067-17.067-17.067H76.8c-9.429,0-17.067,7.637-17.067,17.067v51.2
		c0,9.429,7.637,17.067,17.067,17.067h358.4c9.429,0,17.067-7.637,17.067-17.067V68.267z M418.133,102.4
		c0,9.429-7.637,17.067-17.067,17.067c-9.429,0-17.067-7.637-17.067-17.067V85.333c0-9.429,7.637-17.067,17.067-17.067
		c9.429,0,17.067,7.637,17.067,17.067V102.4z"/>
	<rect x="68.267" y="179.2" style="fill:#E6E7E8;" width="68.267" height="51.2"/>
	<rect x="170.667" y="179.2" style="fill:#E6E7E8;" width="68.267" height="51.2"/>
	<rect x="273.067" y="179.2" style="fill:#E6E7E8;" width="68.267" height="51.2"/>
	<rect x="375.467" y="179.2" style="fill:#E6E7E8;" width="68.267" height="51.2"/>
	<rect x="68.267" y="256" style="fill:#E6E7E8;" width="68.267" height="51.2"/>
	<rect x="170.667" y="256" style="fill:#E6E7E8;" width="68.267" height="51.2"/>
	<rect x="273.067" y="256" style="fill:#E6E7E8;" width="68.267" height="51.2"/>
	<rect x="375.467" y="256" style="fill:#E6E7E8;" width="68.267" height="51.2"/>
	<rect x="68.267" y="332.8" style="fill:#E6E7E8;" width="68.267" height="51.2"/>
	<rect x="170.667" y="332.8" style="fill:#E6E7E8;" width="68.267" height="51.2"/>
	<rect x="273.067" y="332.8" style="fill:#E6E7E8;" width="68.267" height="51.2"/>
	<rect x="375.467" y="332.8" style="fill:#E6E7E8;" width="68.267" height="51.2"/>
	<rect x="68.267" y="409.6" style="fill:#E6E7E8;" width="170.667" height="51.2"/>
	<rect x="273.067" y="409.6" style="fill:#E6E7E8;" width="68.267" height="51.2"/>
	<rect x="375.467" y="409.6" style="fill:#E6E7E8;" width="68.267" height="51.2"/>
	<path style="fill:#E6E7E8;" d="M401.067,68.267c-9.429,0-17.067,7.637-17.067,17.067V102.4c0,9.429,7.637,17.067,17.067,17.067
		c9.429,0,17.067-7.637,17.067-17.067V85.333C418.133,75.904,410.496,68.267,401.067,68.267z"/>
</g>
<g>
	<path style="fill:#231F20;" d="M452.267,512H59.733c-23.552-0.026-42.641-19.115-42.667-42.667V42.667
		C17.092,19.115,36.181,0.026,59.733,0h392.533c23.552,0.026,42.641,19.115,42.667,42.667v426.667
		C494.908,492.885,475.819,511.974,452.267,512z M59.733,17.067c-14.14,0-25.6,11.46-25.6,25.6v426.667
		c0,14.14,11.46,25.6,25.6,25.6h392.533c14.14,0,25.6-11.46,25.6-25.6V42.667c0-14.14-11.46-25.6-25.6-25.6H59.733z"/>
	<path style="fill:#231F20;" d="M435.2,145.067H76.8c-14.14,0-25.6-11.46-25.6-25.6v-51.2c0-14.14,11.46-25.6,25.6-25.6h358.4
		c14.14,0,25.6,11.46,25.6,25.6v51.2C460.8,133.606,449.34,145.067,435.2,145.067z M76.8,59.733c-4.71,0-8.533,3.823-8.533,8.533
		v51.2c0,4.71,3.823,8.533,8.533,8.533h358.4c4.71,0,8.533-3.823,8.533-8.533v-51.2c0-4.71-3.823-8.533-8.533-8.533H76.8z"/>
	<path style="fill:#231F20;" d="M136.533,238.933H68.267c-4.71,0-8.533-3.823-8.533-8.533v-51.2c0-4.71,3.823-8.533,8.533-8.533
		h68.267c4.71,0,8.533,3.823,8.533,8.533v51.2C145.067,235.11,141.244,238.933,136.533,238.933z M76.8,221.867H128v-34.133H76.8
		V221.867z"/>
	<path style="fill:#231F20;" d="M238.933,238.933h-68.267c-4.71,0-8.533-3.823-8.533-8.533v-51.2c0-4.71,3.823-8.533,8.533-8.533
		h68.267c4.71,0,8.533,3.823,8.533,8.533v51.2C247.467,235.11,243.644,238.933,238.933,238.933z M179.2,221.867h51.2v-34.133h-51.2
		V221.867z"/>
	<path style="fill:#231F20;" d="M341.333,238.933h-68.267c-4.71,0-8.533-3.823-8.533-8.533v-51.2c0-4.71,3.823-8.533,8.533-8.533
		h68.267c4.71,0,8.533,3.823,8.533,8.533v51.2C349.867,235.11,346.044,238.933,341.333,238.933z M281.6,221.867h51.2v-34.133h-51.2
		V221.867z"/>
	<path style="fill:#231F20;" d="M443.733,238.933h-68.267c-4.71,0-8.533-3.823-8.533-8.533v-51.2c0-4.71,3.823-8.533,8.533-8.533
		h68.267c4.71,0,8.533,3.823,8.533,8.533v51.2C452.267,235.11,448.444,238.933,443.733,238.933z M384,221.867h51.2v-34.133H384
		V221.867z"/>
	<path style="fill:#231F20;" d="M136.533,315.733H68.267c-4.71,0-8.533-3.823-8.533-8.533V256c0-4.71,3.823-8.533,8.533-8.533
		h68.267c4.71,0,8.533,3.823,8.533,8.533v51.2C145.067,311.91,141.244,315.733,136.533,315.733z M76.8,298.667H128v-34.133H76.8
		V298.667z"/>
	<path style="fill:#231F20;" d="M238.933,315.733h-68.267c-4.71,0-8.533-3.823-8.533-8.533V256c0-4.71,3.823-8.533,8.533-8.533
		h68.267c4.71,0,8.533,3.823,8.533,8.533v51.2C247.467,311.91,243.644,315.733,238.933,315.733z M179.2,298.667h51.2v-34.133h-51.2
		V298.667z"/>
	<path style="fill:#231F20;" d="M341.333,315.733h-68.267c-4.71,0-8.533-3.823-8.533-8.533V256c0-4.71,3.823-8.533,8.533-8.533
		h68.267c4.71,0,8.533,3.823,8.533,8.533v51.2C349.867,311.91,346.044,315.733,341.333,315.733z M281.6,298.667h51.2v-34.133h-51.2
		V298.667z"/>
	<path style="fill:#231F20;" d="M443.733,315.733h-68.267c-4.71,0-8.533-3.823-8.533-8.533V256c0-4.71,3.823-8.533,8.533-8.533
		h68.267c4.71,0,8.533,3.823,8.533,8.533v51.2C452.267,311.91,448.444,315.733,443.733,315.733z M384,298.667h51.2v-34.133H384
		V298.667z"/>
	<path style="fill:#231F20;" d="M136.533,392.533H68.267c-4.71,0-8.533-3.823-8.533-8.533v-51.2c0-4.71,3.823-8.533,8.533-8.533
		h68.267c4.71,0,8.533,3.823,8.533,8.533V384C145.067,388.71,141.244,392.533,136.533,392.533z M76.8,375.467H128v-34.133H76.8
		V375.467z"/>
	<path style="fill:#231F20;" d="M238.933,392.533h-68.267c-4.71,0-8.533-3.823-8.533-8.533v-51.2c0-4.71,3.823-8.533,8.533-8.533
		h68.267c4.71,0,8.533,3.823,8.533,8.533V384C247.467,388.71,243.644,392.533,238.933,392.533z M179.2,375.467h51.2v-34.133h-51.2
		V375.467z"/>
	<path style="fill:#231F20;" d="M341.333,392.533h-68.267c-4.71,0-8.533-3.823-8.533-8.533v-51.2c0-4.71,3.823-8.533,8.533-8.533
		h68.267c4.71,0,8.533,3.823,8.533,8.533V384C349.867,388.71,346.044,392.533,341.333,392.533z M281.6,375.467h51.2v-34.133h-51.2
		V375.467z"/>
	<path style="fill:#231F20;" d="M443.733,392.533h-68.267c-4.71,0-8.533-3.823-8.533-8.533v-51.2c0-4.71,3.823-8.533,8.533-8.533
		h68.267c4.71,0,8.533,3.823,8.533,8.533V384C452.267,388.71,448.444,392.533,443.733,392.533z M384,375.467h51.2v-34.133H384
		V375.467z"/>
	<path style="fill:#231F20;" d="M238.933,469.333H68.267c-4.71,0-8.533-3.823-8.533-8.533v-51.2c0-4.71,3.823-8.533,8.533-8.533
		h170.667c4.71,0,8.533,3.823,8.533,8.533v51.2C247.467,465.51,243.644,469.333,238.933,469.333z M76.8,452.267h153.6v-34.133H76.8
		V452.267z"/>
	<path style="fill:#231F20;" d="M341.333,469.333h-68.267c-4.71,0-8.533-3.823-8.533-8.533v-51.2c0-4.71,3.823-8.533,8.533-8.533
		h68.267c4.71,0,8.533,3.823,8.533,8.533v51.2C349.867,465.51,346.044,469.333,341.333,469.333z M281.6,452.267h51.2v-34.133h-51.2
		V452.267z"/>
	<path style="fill:#231F20;" d="M443.733,469.333h-68.267c-4.71,0-8.533-3.823-8.533-8.533v-51.2c0-4.71,3.823-8.533,8.533-8.533
		h68.267c4.71,0,8.533,3.823,8.533,8.533v51.2C452.267,465.51,448.444,469.333,443.733,469.333z M384,452.267h51.2v-34.133H384
		V452.267z"/>
	<path style="fill:#231F20;" d="M401.067,128c-14.14,0-25.6-11.46-25.6-25.6V85.333c0-14.14,11.46-25.6,25.6-25.6
		s25.6,11.46,25.6,25.6V102.4C426.667,116.54,415.206,128,401.067,128z M401.067,76.8c-4.71,0-8.533,3.823-8.533,8.533V102.4
		c0,4.71,3.823,8.533,8.533,8.533s8.533-3.823,8.533-8.533V85.333C409.6,80.623,405.777,76.8,401.067,76.8z"/>
</g>
<g>
</g>
<g>
</g>
<g>
</g>
<g>
</g>
<g>
</g>
<g>
</g>
<g>
</g>
<g>
</g>
<g>
</g>
<g>
</g>
<g>
</g>
<g>
</g>
<g>
</g>
<g>
</g>
<g>
</g>
</svg>
