<svg id="aquarium" enable-background="new 0 0 300 300" height="512" viewBox="0 0 300 300" width="512" xmlns="http://www.w3.org/2000/svg"><g><path d="m270 250h-16v-4c6.617 0 12-5.383 12-12v-136c0-2.209-1.791-4-4-4h-224c-2.209 0-4 1.791-4 4v136c0 6.617 5.383 12 12 12v4h-16c-2.209 0-4 1.791-4 4s1.791 4 4 4h240c2.209 0 4-1.791 4-4s-1.791-4-4-4zm-12-148v29.235l-12.357-6.798c-7.289-4.014-15.996-4.014-23.285 0l-8.57 4.715c-4.875 2.68-10.699 2.68-15.574 0l-8.57-4.715c-7.289-4.014-15.996-4.014-23.285 0l-8.57 4.715c-4.875 2.68-10.699 2.68-15.574 0l-8.57-4.715c-7.289-4.014-15.996-4.014-23.285 0l-8.57 4.715c-4.875 2.68-10.699 2.68-15.574 0l-8.57-4.715c-7.289-4.014-15.996-4.014-23.285 0l-12.361 6.798v-29.235zm-216 132v-93.636l16.213-8.919c4.875-2.68 10.699-2.68 15.574 0l8.57 4.715c7.285 4.01 15.992 4.01 23.285 0l8.57-4.715c4.875-2.68 10.699-2.68 15.574 0l8.57 4.715c7.285 4.01 15.992 4.01 23.285 0l8.57-4.715c4.875-2.68 10.699-2.68 15.574 0l8.57 4.715c7.285 4.01 15.992 4.01 23.285 0l8.57-4.715c4.875-2.68 10.699-2.68 15.574 0l16.216 8.919v93.636c0 2.205-1.795 4-4 4h-100v-2.24c0-5.381-4.379-9.76-9.76-9.76h-10.508c-1.1-5.714-5.515-10.225-11.144-11.558l2.588-5.752 11.043-7.361c1.787-1.191 2.314-3.582 1.193-5.416l-5.139-8.4-1.174-10.553 8.648-4.943c1.732-.99 2.471-3.105 1.729-4.959l-2.02-5.051 5.488-4.393c1.41-1.127 1.889-3.057 1.172-4.713s-2.457-2.619-4.238-2.369l-24.447 3.51c-1.125.162-2.129.795-2.76 1.74l-8 12c-.984 1.475-.879 3.422.258 4.783l3.07 3.676v2.568l-6.109 3.793c-1.188.736-1.904 2.041-1.891 3.438l.265 26.882-2.023-12.855c-.027-.178-.068-.354-.119-.527-.117-.387-12.041-38.717-53.729-37.508-1.643.051-3.088 1.102-3.643 2.648s-.105 3.275 1.131 4.359l9.133 8-1.287 9.906c-.148 1.141.203 2.291.961 3.156.76.863 1.855 1.359 3.006 1.359h3.188l-.9 6.252c-.291 2.021.986 3.938 2.965 4.445l6.361 1.633v2.908c0 1.727 1.107 3.258 2.746 3.799l10.326 3.408c1.034.786 3.839 3.093 6.969 6.596-.25.483-.481.979-.665 1.498h-13.877c-8.164.001-14.807 6.644-14.807 14.808v1.193h-12c-2.205 0-4-1.795-4-4zm30.303-37.188-5.891-1.512 1.049-7.27c.166-1.148-.176-2.312-.936-3.189s-1.863-1.381-3.023-1.381h-3.254l.977-7.508c.172-1.324-.328-2.645-1.332-3.525l-1.736-1.521c25.119 4.883 33.326 27.914 34.23 30.697l2.038 12.953c-.415.13-.81.301-1.205.474-4.578-5.109-8.521-7.885-8.704-8.01-.314-.219-.66-.391-1.023-.512l-8.184-2.701v-3.119c0-1.827-1.237-3.42-3.006-3.876zm37.718-8.601 6.088-3.779c1.176-.73 1.891-2.016 1.891-3.398v-6.244c0-.938-.33-1.846-.93-2.564l-2.084-2.494 5.352-8.025 10.336-1.484c-.086.662-.008 1.352.254 2.002l1.83 4.574-7.908 4.52c-1.385.791-2.168 2.33-1.99 3.914l1.562 14.051c.064.584.256 1.145.562 1.646l3.596 5.879-8.799 5.865c-.625.416-1.121 1.002-1.43 1.688l-4.337 9.638h-3.738zm-20.021 41.789c2.209 0 4-1.791 4-4 0-2.205 1.795-4 4-4h21.193c2.751 0 5.112 1.647 6.184 4h-11.377c-2.209 0-4 1.791-4 4s1.791 4 4 4h16 14.24c.971 0 1.76.789 1.76 1.76v2.24h-80v-1.193c0-3.754 3.053-6.807 6.807-6.807zm-36 16h192v4h-192z"/><path d="m134 74c6.617 0 12-5.383 12-12s-5.383-12-12-12-12 5.383-12 12 5.383 12 12 12zm0-16c2.205 0 4 1.795 4 4s-1.795 4-4 4-4-1.795-4-4 1.795-4 4-4z"/><circle cx="178" cy="46" r="4"/><circle cx="234" cy="158" r="4"/><circle cx="94" cy="154" r="4"/><circle cx="188" cy="68" r="6"/><circle cx="70" cy="74" r="4"/><path d="m196 206c9.439 0 17.273-4.129 20.451-10.081l15.458 9.49c.641.395 1.365.592 2.092.592.672 0 1.346-.17 1.953-.51 1.264-.707 2.047-2.041 2.047-3.49v-24c0-1.449-.783-2.783-2.047-3.49-1.266-.707-2.811-.678-4.045.082l-15.458 9.49c-3.178-5.954-11.012-10.083-20.451-10.083-12.336 0-22 7.027-22 16s9.664 16 22 16zm34-20.852v9.703l-7.902-4.851zm-34-3.148c8.25 0 14 4.217 14 8s-5.75 8-14 8-14-4.217-14-8 5.75-8 14-8z"/></g></svg>
