<svg id="fish5" enable-background="new 0 0 300 300" height="512" viewBox="0 0 300 300" width="512" xmlns="http://www.w3.org/2000/svg"><g><path d="m270.75 180.211c-.758-1.516-1.258-2.518.215-6.945 3.445-10.332 1.641-13.826-1.59-18.672-.855-1.281-1.738-2.605-2.625-4.383-1.094-2.184-.844-2.799-.02-4.838 1.184-2.928 2.805-6.938.234-14.639-1.777-5.332-.676-8.516.293-11.326.918-2.658 2.305-6.674-1.258-10.236-.98-.98-1.738-2.637-2.613-4.553-1.75-3.822-4.141-9.055-10.426-12.197-10.391-5.193-40.023 3.971-56.914 25.078-8.244 10.306-18.705 18.4-26.659 23.72-1.256-.769-2.656-1.502-4.164-2.21 10.236-8.985 15.294-21.145 15.534-21.736.438-1.066.391-2.268-.125-3.299l-5.883-11.764c-.723-1.445-2.211-2.301-3.863-2.201-1.613.115-2.996 1.191-3.508 2.725-.035.102-3.484 10.143-13.473 13.471-8.215 2.742-10.914-1.566-11.156-1.994-.992-1.979-3.387-2.779-5.367-1.789-5.035 2.518-10.152 3.264-12.648 3.486l-6.734-6.737c-.75-.75-1.766-1.172-2.828-1.172-7.904 0-14.114 6.88-18.056 19.8-38.093 1.949-67.045 23.988-68.401 25.042-1.164.906-1.734 2.379-1.484 3.834.246 1.453 1.277 2.652 2.676 3.119l7.625 2.541-1.938 3.875c-.988 1.977-.188 4.379 1.789 5.367l32 16c8.434 4.217 15.93 5.828 22.738 5.828.278 0 .541-.036.816-.041.858 2.204 1.991 4.048 3.406 5.463 2.91 2.912 8.844 4.172 14.191 4.172 3.23 0 6.25-.461 8.262-1.293 3.949-1.637 4.375-4.537 4.375-5.707 0-1.566 1.695-4.02 2.828-5.172.91-.908 1.328-2.199 1.121-3.469s-1.012-2.361-2.16-2.938c-.483-.241-.877-.562-1.304-.853 6.698-3.343 13.09-6.444 20.171-7.624l6.512-1.061c5.034-.81 9.393-1.519 13.111-2.374 3.136 5.317 4.982 12.215 6.857 19.57 2.23 8.762 4.539 17.82 9.434 25.979 12.622 21.036 41.907 29.942 51.431 29.942 10.582 0 11.582-2.098 15.793-14.734 1.441-4.316 2.793-4.518 5.762-4.959 2.91-.432 7.309-1.086 10.023-6.518 1.531-3.062 2.145-3.652 2.57-3.855 1.289-.492 2.715-1.139 4.68-3.105 3.562-3.562 2.176-7.578 1.258-10.236-.969-2.811-2.07-5.994-.293-11.326 2.336-7.003 1.285-10.056-.215-13.056zm-157-63.977 6.594 6.594c.75.75 1.766 1.172 2.828 1.172.324 0 7.16-.039 14.793-3.082 3.301 3.174 9.406 5.896 18.473 2.877 7.074-2.357 11.723-7.049 14.598-11.123l1.59 3.176c-1.859 3.853-7.302 13.768-16.163 19.822-10.829-3.388-25.642-5.9-44.927-7.654-2.026-.184-4.012-.233-6-.293 2.281-6.394 5.195-10.502 8.214-11.489zm1.531 78.28c-3.02.99-11.453.482-13.281-1.342-.203-.203-.372-.526-.559-.79 5.129-1.086 9.883-2.922 14.376-4.993.5.552 1.033 1.075 1.6 1.564-.949 1.559-1.835 3.483-2.136 5.561zm33.789-27.528-6.555 1.068c-8.594 1.432-16.098 5.184-23.355 8.812-13.703 6.852-26.645 13.334-46.199 3.555l-28.422-14.211 2.211-4.422c.52-1.037.562-2.248.117-3.32-.445-1.07-1.332-1.896-2.43-2.264l-4.312-1.438c12.027-7.482 39.391-21.621 70.684-18.783 52.52 4.773 60.363 14.59 60.363 20.016 0 6.806-1.86 7.73-22.102 10.987zm30.102-10.986c0-3.479-1.163-6.6-3.438-9.417 4.066-2.809 8.62-6.267 13.196-10.281 1.371 4.033 3.808 10.118 7.055 13.607-.207.188-.41.369-.59.525-2.367 2.096-5.941 5.264-5.941 10.09 0 3.264 1.234 6.633 2.43 9.893.598 1.635 1.555 4.244 1.652 5.473-1.27.686-3.188 1.252-4.906 1.758-3.832 1.127-7.797 2.293-9.172 5.811-.249.526-1.208 1.472-2.47 2.508-1.517-5.762-3.179-11.212-5.719-16.018 5.247-2.544 7.903-6.507 7.903-13.949zm7.429 57.941c-3.553-5.924-5.634-12.761-7.436-19.598 2.613-1.793 6.209-4.643 7.561-7.547.73-.467 2.773-1.068 4.16-1.477 2.52-.742 5.375-1.582 7.621-3.1 4.988-3.369 2.715-9.574.887-14.559-.91-2.482-1.941-5.295-1.941-7.139 0-1.225 1.801-2.818 3.246-4.1 2.016-1.787 4.305-3.812 4.191-6.881-.047-1.26-.551-3.104-2.676-4.723-2.352-1.793-5.398-9.588-6.719-14.291-.029-.104-.104-.176-.141-.275 2.401-2.438 4.747-5.013 6.942-7.756 1.899-2.375 3.976-4.56 6.164-6.563 1.089 3.93 3.607 7.87 8.852 9.966 1.473.59 1.902 1.121.375 7.527-1.047 4.389-2.234 9.363-.109 13.969 1.723 3.73 5.078 6.391 8.039 8.74 2.098 1.662 4.707 3.732 4.836 4.984.051.492-.367 1.312-1.152 2.252-7.539 9.047-10.699 13.412-6.574 22.078.441.928.488 1.725.156 2.588-.941 2.424-4.609 5.137-9.816 7.256-7.48 3.043-6.594 11.863-6.004 17.699.137 1.381.332 3.303.297 4.473-.801.127-1.594.213-2.371.301-3.581.402-7.911.914-11.431 4.786-2.632-2.547-5.025-5.389-6.957-8.61zm76.992-30.152c.758 1.516 1.258 2.518-.215 6.945-2.637 7.908-.859 13.059.316 16.469.27.775.637 1.84.648 1.969-.926.924-1.305 1.068-1.879 1.287-2.609.998-4.145 2.297-6.871 7.752-.82 1.641-1.516 1.807-4.043 2.184-3.656.543-9.184 1.365-12.172 10.34-1.512 4.529-2.703 8.105-3.535 8.938-.327.327-2.635.327-4.67.327-4.178 0-19.021-3.449-31.431-12.307 1.391-1.335 3.121-1.635 6.142-1.974 1.441-.162 2.926-.336 4.43-.672 5.871-1.305 5.199-7.98 4.711-12.854-.371-3.672-.879-8.701 1.059-9.488 5.25-2.137 11.988-5.914 14.258-11.773 1.133-2.92 1-6.004-.387-8.918-1.859-3.906-2.098-4.406 5.496-13.52 2.246-2.699 3.246-5.457 2.961-8.195-.473-4.604-4.211-7.564-7.82-10.432-2.371-1.879-4.824-3.824-5.746-5.822-.965-2.092-.156-5.482.625-8.762 1.277-5.355 3.211-13.451-5.188-16.811-4.355-1.74-4.678-6.05-4.528-8.298 13.823-9.482 29.232-12.79 33.629-10.597 3.762 1.879 5.137 4.887 6.727 8.367 1.102 2.402 2.234 4.885 4.219 6.666.004.346-.363 1.41-.633 2.186-1.176 3.41-2.953 8.561-.316 16.469 1.633 4.904.844 6.854-.066 9.109-1.023 2.533-2.426 6.002.281 11.414 1.113 2.223 2.227 3.896 3.125 5.242 2.273 3.41 3.039 4.561.66 11.703-2.337 7.003-1.287 10.056.213 13.056z"/><circle cx="63.172" cy="152" r="4.292"/><path d="m82.203 144.41c-2.145.535-3.449 2.707-2.91 4.852.031.133 3.203 13.338-6.34 19.701-1.84 1.225-2.336 3.709-1.109 5.547.77 1.156 2.039 1.781 3.332 1.781.762 0 1.531-.217 2.215-.672 14.184-9.455 9.852-27.533 9.66-28.299-.536-2.14-2.715-3.453-4.848-2.91z"/><path d="m54.173 64.583c2.371 0 4.292-1.921 4.292-4.292s-1.922-4.291-4.292-4.291-4.291 1.921-4.291 4.292 1.92 4.291 4.291 4.291z"/><path d="m93.193 68c2.37 0 4.292-1.921 4.292-4.292 0-2.37-1.921-4.292-4.292-4.292s-4.292 1.921-4.292 4.292 1.921 4.292 4.292 4.292z"/><circle cx="71.172" cy="92" r="4.292"/><path d="m147.172 216c-6.617 0-12 5.383-12 12s5.383 12 12 12 12-5.383 12-12-5.383-12-12-12zm0 16c-2.207 0-4-1.795-4-4s1.793-4 4-4 4 1.795 4 4-1.793 4-4 4z"/><path d="m195.172 84c8.824 0 16-7.178 16-16s-7.176-16-16-16-16 7.178-16 16 7.175 16 16 16zm0-24c4.41 0 8 3.588 8 8s-3.59 8-8 8-8-3.588-8-8 3.589-8 8-8z"/></g></svg>