<svg fill="white" height="512pt" viewBox="0 0 512 512" width="512pt" xmlns="http://www.w3.org/2000/svg"><path d="m192 341.332031h21.332031v21.335938h-21.332031zm0 0"/><path d="m256 0c-141.160156 0-256 114.839844-256 256s114.839844 256 256 256 256-114.839844 256-256-114.839844-256-256-256zm0 384c0 11.78125-9.550781 21.332031-21.332031 21.332031h-42.667969v42.667969h-42.667969v-128c0-11.78125 9.554688-21.332031 21.335938-21.332031h64c11.78125 0 21.332031 9.550781 21.332031 21.332031zm0-106.667969c-11.78125 0-21.332031-9.550781-21.332031-21.332031s9.550781-21.332031 21.332031-21.332031 21.332031 9.550781 21.332031 21.332031-9.550781 21.332031-21.332031 21.332031zm128 170.667969h-42.667969v-42.667969h-21.332031v42.667969h-42.667969v-149.332031h42.667969v64h21.332031v-64h42.667969zm-50.1875-227.015625c-13.367188-29.660156-43.167969-50.316406-77.8125-50.316406-.238281 0-.464844.023437-.703125.023437l-45.003906-75-36.585938 21.953125 38.945313 64.902344c-15.085938 8.929687-27.207032 22.339844-34.464844 38.433594l-97.265625-43.765625c30.074219-66.734375 97.125-113.214844 175.078125-113.214844s145.003906 46.480469 175.078125 113.214844zm0 0"/></svg>