<svg fill="white" id="Layer_1" enable-background="new 0 0 128 128" height="512" viewBox="0 0 128 128" width="512" xmlns="http://www.w3.org/2000/svg"><path id="Ruler" d="m118.828 33.172-24-24c-1.563-1.563-4.094-1.563-5.656 0l-80 80c-1.563 1.563-1.563 4.094 0 5.656l24 24c.781.781 1.805 1.172 2.828 1.172s2.047-.391 2.828-1.172l80-80c1.563-1.562 1.563-4.094 0-5.656zm-18.828 13.172-9.172-9.172c-1.563-1.563-4.094-1.563-5.656 0s-1.563 4.094 0 5.656l9.172 9.172-6.344 6.344-5.172-5.172c-1.563-1.563-4.094-1.563-5.656 0s-1.563 4.094 0 5.656l5.172 5.172-6.344 6.344-9.172-9.172c-1.563-1.563-4.094-1.563-5.656 0s-1.563 4.094 0 5.656l9.172 9.172-6.344 6.344-5.172-5.172c-1.563-1.563-4.094-1.563-5.656 0s-1.563 4.094 0 5.656l5.172 5.172-6.344 6.344-9.172-9.172c-1.563-1.563-4.094-1.563-5.656 0s-1.563 4.094 0 5.656l9.172 9.172-10.344 10.344-18.344-18.344 74.344-74.344 18.344 18.344z"/></svg>