<svg fill="white" id="icons" height="512" viewBox="0 0 24 24" width="512" xmlns="http://www.w3.org/2000/svg"><path d="m5 12a7 7 0 1 0 7-7 7 7 0 0 0 -7 7zm12 0a5 5 0 1 1 -5-5 5 5 0 0 1 5 5z"/><path d="m13 3v-1a1 1 0 0 0 -2 0v1a1 1 0 0 0 2 0z"/><path d="m3 13a1 1 0 0 0 0-2h-1a1 1 0 0 0 0 2z"/><path d="m13 22v-1a1 1 0 0 0 -2 0v1a1 1 0 0 0 2 0z"/><path d="m22 11h-1a1 1 0 0 0 0 2h1a1 1 0 0 0 0-2z"/><path d="m4.93 6.34a1 1 0 0 0 1.41 0 1 1 0 0 0 0-1.41l-.7-.71a1 1 0 0 0 -1.42 1.42z"/><path d="m4.93 20.07a1 1 0 0 0 .71-.29l.7-.71a1 1 0 0 0 -1.41-1.41l-.71.7a1 1 0 0 0 0 1.42 1 1 0 0 0 .71.29z"/><path d="m19.07 17.66a1 1 0 0 0 -1.41 1.41l.7.71a1 1 0 0 0 .71.29 1 1 0 0 0 .71-.29 1 1 0 0 0 0-1.42z"/><path d="m18.36 6.64a1 1 0 0 0 .71-.3l.71-.7a1 1 0 1 0 -1.42-1.42l-.7.71a1 1 0 0 0 0 1.41 1 1 0 0 0 .7.3z"/></svg>